<svg width="363" height="512" viewBox="0 0 363 512" fill="none" xmlns="http://www.w3.org/2000/svg">
<path d="M362.734 100.62L329.688 470.819L181.145 512L33.011 470.877L0 100.62H362.734Z" fill="#264DE4"/>
<path d="M301.397 447.246L329.637 130.894H181.367V480.523L301.397 447.246Z" fill="#2965F1"/>
<path d="M75.677 268.217L79.747 313.627H181.367V268.217H75.677Z" fill="#EBEBEB"/>
<path d="M181.367 176.305H181.21H67.499L71.627 221.716H181.367V176.305Z" fill="#EBEBEB"/>
<path d="M181.367 433.399V386.153L181.168 386.206L130.594 372.55L127.361 336.333H81.776L88.138 407.634L181.158 433.457L181.367 433.399Z" fill="#EBEBEB"/>
<path d="M85.367 0H140.367V23H108.367V46H140.367V69H85.367V0Z" fill="black"/>
<path d="M151.367 0H206.367V20H174.367V24H206.367V70H151.367V49H183.367V45H151.367V0Z" fill="black"/>
<path d="M217.367 0H272.367V20H240.367V24H272.367V70H217.367V49H249.367V45H217.367V0Z" fill="black"/>
<path d="M237.128 313.627L231.857 372.521L181.21 386.191V433.435L274.304 407.634L285.658 280.411L286.766 268.217L294.964 176.305H181.21L181.21 221.716H245.198L241.066 268.217H181.21V313.627H237.128Z" fill="white"/>
</svg>
