<svg width="342" height="512" viewBox="0 0 342 512" fill="none" xmlns="http://www.w3.org/2000/svg">
<path d="M85.3333 512C132.437 512 170.667 473.771 170.667 426.667V341.333H85.3333C38.2293 341.333 0 379.563 0 426.667C0 473.771 38.2293 512 85.3333 512Z" fill="#0ACF83"/>
<path d="M0 256C0 208.896 38.2293 170.667 85.3333 170.667H170.667V341.333H85.3333C38.2293 341.333 0 303.104 0 256Z" fill="#A259FF"/>
<path d="M0 85.3333C0 38.2293 38.2293 0 85.3333 0H170.667V170.667H85.3333C38.2293 170.667 0 132.437 0 85.3333Z" fill="#F24E1E"/>
<path d="M170.667 0H256C303.104 0 341.333 38.2293 341.333 85.3333C341.333 132.437 303.104 170.667 256 170.667H170.667V0Z" fill="#FF7262"/>
<path d="M341.333 256C341.333 303.104 303.104 341.333 256 341.333C208.896 341.333 170.667 303.104 170.667 256C170.667 208.896 208.896 170.667 256 170.667C303.104 170.667 341.333 208.896 341.333 256Z" fill="#1ABCFE"/>
</svg>
