<svg width="473" height="512" viewBox="0 0 473 512" fill="none" xmlns="http://www.w3.org/2000/svg">
<path d="M354.939 0.20275C360.616 0.121649 366.334 0.0405506 372.052 0C372.133 3.16294 372.254 9.44827 372.335 12.6112C366.496 12.6112 360.657 12.5707 354.858 12.5707C354.858 9.48883 354.939 3.32514 354.939 0.20275Z" fill="#101010"/>
<path d="M8.51562 2.798C18.9371 2.8791 29.3993 2.91966 39.9019 2.96021C39.0098 21.6135 42.6593 40.9966 37.3877 59.1633C30.5752 72.2206 13.625 69.6659 1.41927 69.9092C0.932663 65.773 0.446056 61.6369 0 57.5007C7.01525 56.933 14.6388 58.3117 21.0863 54.7027C25.263 41.7671 23.3977 27.9393 22.3434 14.6387C18.7749 14.7198 11.6786 14.8009 8.11011 14.8415C8.23176 11.8408 8.39397 5.79874 8.51562 2.798Z" fill="#131313"/>
<path d="M217.311 7.90738C229.597 -1.58145 245.736 2.31143 259.402 6.00153C259.361 9.61053 259.321 16.8285 259.321 20.4375C248.737 16.1797 228.624 6.89365 225.948 24.4115C235.964 27.4528 246.548 29.237 255.631 34.6708C265.282 42.5376 262.565 60.4204 251.454 65.8136C238.802 73.3155 223.799 69.2198 210.457 66.5029C209.687 60.9475 208.916 55.4326 208.227 49.8772C219.46 54.8244 242.209 66.5435 245.574 47.6064C234.301 43.3486 220.271 42.7403 212.079 33.0082C208.47 24.7359 209.079 13.2195 217.311 7.90738Z" fill="#131313"/>
<path d="M441.515 5.10936C446.259 5.10936 451.044 5.10936 455.869 5.10936C455.991 9.69157 456.153 14.2738 456.356 18.856C460.006 18.8966 467.345 18.9777 471.035 19.0182C471.116 21.8162 471.238 27.3716 471.319 30.1291C467.589 30.0885 460.127 30.0074 456.397 29.9263C456.599 39.2124 454.207 49.35 458.87 57.9062C462.358 58.2712 469.332 58.9605 472.82 59.3255C472.455 76.3973 452.99 68.6521 442.691 65.9758C441.758 55.5543 441.312 45.1328 441.312 34.6707C438.676 30.9806 436.04 27.25 433.445 23.5599C435.432 21.7351 439.406 18.0855 441.393 16.2608C441.433 13.4628 441.474 7.8668 441.515 5.10936Z" fill="#131313"/>
<path d="M52.5535 19.3832C65.773 18.6938 84.2641 13.7872 92.577 27.4527C95.5372 40.9966 93.6718 55.0677 94.1178 68.8548C88.1975 68.3277 82.2772 67.76 76.3974 67.2328C69.666 67.8005 61.7584 72.7882 55.5542 68.3277C45.2544 63.3805 45.0923 45.1328 55.9193 40.7127C63.7861 37.4687 72.3828 36.901 80.6146 34.9546C72.7883 26.8445 61.6775 29.9263 51.8237 30.9806C52.0264 28.061 52.3913 22.2623 52.5535 19.3832ZM65.4487 47.2414C65.0026 51.1748 64.5971 55.1082 64.2322 59.0822C68.7333 58.8389 73.2344 58.6361 77.776 58.3928C78.1004 54.135 78.4654 49.8772 78.8304 45.6194C74.3293 46.1465 69.8687 46.7142 65.4487 47.2414Z" fill="#131313"/>
<path d="M100.16 17.9639C104.053 18.7344 111.879 20.2753 115.772 21.0457C119.867 30.4535 122.666 40.3478 126.64 49.8366C129.965 39.699 133.046 29.4397 136.047 19.1804C139.94 19.0993 147.766 18.9777 151.659 18.8965C146.144 36.2927 139.981 53.4862 133.087 70.4363C127.734 69.747 122.463 68.6115 117.353 67.1112C109.973 51.3776 105.107 34.5896 100.16 17.9639Z" fill="#131313"/>
<path d="M156.687 30.8995C157.823 27.0472 159.12 23.1949 160.54 19.4237C173.11 17.5989 190.142 14.9226 198.779 26.6823C201.739 40.7128 199.914 55.2299 200.198 69.4631C194.237 68.6521 188.317 67.8411 182.396 67.0301C171.772 72.6666 154.051 70.6391 154.295 55.6759C152.267 37.9148 174.449 37.6715 186.492 35.3195C179.234 25.5874 166.663 30.7373 156.687 30.8995ZM171.367 47.6064C170.921 51.2559 170.515 54.946 170.11 58.5956C174.57 58.7172 179.031 58.8389 183.532 58.92C183.937 54.4189 184.343 49.9583 184.748 45.4572C180.288 46.1465 175.827 46.8765 171.367 47.6064Z" fill="#131313"/>
<path d="M265.16 44.1596C263.903 22.1001 291.964 10.5431 308.752 22.3028C309.158 25.4252 309.928 31.7105 310.293 34.8329C302.588 32.3999 294.681 26.885 286.409 30.6157C277.65 38.9691 279.475 60.177 294.316 58.92C298.412 57.6224 306.562 55.0271 310.658 53.7295C309.928 57.2168 308.509 64.1916 307.819 67.6383C290.261 75.9107 263.782 66.138 265.16 44.1596Z" fill="#131313"/>
<path d="M317.024 17.8017C323.107 19.4237 329.311 21.0458 335.434 22.7894C340.017 21.1269 344.639 19.5048 349.303 17.8422C349.505 21.7351 349.992 29.5208 350.235 33.4137C344.396 33.6975 338.557 33.9814 332.799 34.2652C332.393 45.9032 332.271 57.5007 332.19 69.1387C328.379 69.1792 320.714 69.2198 316.903 69.2604C316.7 52.1075 316.659 34.9546 317.024 17.8017Z" fill="#131313"/>
<path d="M382.96 18.8965C394.152 21.4107 405.425 20.6402 416.576 18.41C434.053 22.019 434.459 46.7954 427.808 59.7715C422.294 70.9635 408.79 69.9092 398.369 69.3415C398.45 75.2618 398.531 81.1417 398.612 87.0621C394.719 87.0215 386.852 86.9404 382.919 86.8593C382.919 64.2321 382.879 41.5643 382.96 18.8965ZM398.774 30.8184C398.612 40.2667 398.531 49.7555 398.612 59.2038C403.64 57.8251 410.129 58.7983 413.94 54.4594C416.779 46.7548 414.549 38.442 413.981 30.494C408.912 30.5751 403.843 30.6968 398.774 30.8184Z" fill="#131313"/>
<path d="M356.399 19.0182C360.008 19.0182 367.226 19.0182 370.795 19.0182C371.038 35.7656 371.038 52.4724 370.795 69.2198C367.186 69.2198 360.008 69.2198 356.399 69.2198C356.115 52.513 356.115 35.7656 356.399 19.0182Z" fill="#131313"/>
<path d="M55.5137 101.782C95.9426 100.079 136.453 102.269 176.922 101.579C221.568 100.16 266.174 101.336 310.861 101.498C346.302 101.579 381.743 101.336 417.184 101.62C406.033 224.61 394.8 347.599 384.46 470.67C336.975 484.174 289.45 497.474 241.965 510.896C235.883 513.411 229.638 511.059 223.798 509.477C178.666 496.501 133.533 483.646 88.3191 471.157C76.5594 348.126 65.4891 224.974 55.5137 101.782ZM237.099 133.857C235.437 194.521 236.856 255.185 236.369 315.848C236.815 371.321 235.558 426.835 237.018 482.308C276.92 472.901 316.294 461.344 355.669 449.949C365.563 344.639 375.214 239.329 383.487 133.898C334.704 133.411 285.881 133.979 237.099 133.857ZM186.33 370.754C162.892 364.347 139.737 356.967 115.975 351.898C115.285 366.009 115.529 380.121 117.151 394.151C151.943 402.626 186.005 413.778 220.838 422.091C221.082 341.76 220.717 261.389 221.001 181.058C209.646 180.774 198.292 180.612 186.938 180.369C185.64 243.79 186.857 307.292 186.33 370.754Z" fill="#D6BA32"/>
<path d="M237.099 133.857C285.881 133.979 334.704 133.411 383.487 133.898C375.214 239.329 365.563 344.639 355.669 449.949C316.294 461.344 276.92 472.901 237.018 482.308C235.558 426.835 236.815 371.321 236.369 315.848C236.856 255.185 235.437 194.521 237.099 133.857ZM250.765 181.018C250.927 233.247 250.967 285.516 250.765 337.746C274.608 333.893 298.371 329.473 322.134 325.134C321.769 337.3 321.282 349.465 320.755 361.63C297.601 367.794 274.487 374.16 251.211 379.878C250.846 393.908 250.805 407.939 250.927 422.01C280.245 415.44 309.117 407.168 338.232 399.828C341.882 398.125 348.897 398.328 348.573 392.61C352.1 355.061 354.29 317.349 357.696 279.718C333.569 281.705 309.685 285.76 285.557 287.422C285.354 266.093 285.314 244.763 285.638 223.434C311.023 223.434 336.367 223.434 361.751 223.474C363.373 209.241 364.793 194.967 365.888 180.693C327.527 180.855 289.125 180.328 250.765 181.018Z" fill="#FFDA3E"/>
<path d="M186.33 370.754C186.857 307.292 185.64 243.79 186.938 180.369C198.292 180.612 209.646 180.774 221.001 181.058C220.717 261.389 221.082 341.76 220.838 422.091C186.005 413.778 151.943 402.626 117.151 394.151C115.529 380.121 115.285 366.009 115.975 351.898C139.737 356.967 162.892 364.347 186.33 370.754Z" fill="#EBEBEB"/>
</svg>
