<svg width="526" height="512" viewBox="0 0 526 512" fill="none" xmlns="http://www.w3.org/2000/svg">
<path d="M92.9915 0H432.137C483.556 0 525.128 41.5727 525.128 92.9915V419.009C525.128 470.427 483.556 512 432.137 512H92.9915C41.5727 512 0 470.427 0 419.009V92.9915C0 41.5727 41.5727 0 92.9915 0Z" fill="#001E36"/>
<path d="M118.154 359.056V133.908C118.154 132.376 118.81 131.501 120.342 131.501C124.062 131.501 127.562 131.501 132.595 131.282C137.846 131.063 143.316 131.063 149.224 130.844C155.132 130.626 161.477 130.626 168.26 130.407C175.043 130.188 181.607 130.188 188.171 130.188C206.113 130.188 220.991 132.376 233.244 136.971C244.185 140.691 254.25 146.817 262.564 154.913C269.566 161.915 275.036 170.448 278.537 179.856C281.819 189.046 283.569 198.455 283.569 208.301C283.569 227.118 279.193 242.653 270.441 254.906C261.689 267.159 249.436 276.349 235.214 281.6C220.335 287.07 203.925 289.039 185.983 289.039C180.732 289.039 177.231 289.039 175.043 288.821C172.855 288.602 169.791 288.602 165.634 288.602V358.838C165.853 360.369 164.759 361.682 163.227 361.901C163.009 361.901 162.79 361.901 162.352 361.901H120.779C119.029 361.901 118.154 361.026 118.154 359.056ZM165.853 173.73V247.248C168.916 247.467 171.761 247.685 174.386 247.685H185.983C194.516 247.685 203.05 246.373 211.145 243.747C218.147 241.778 224.274 237.621 229.087 232.15C233.682 226.68 235.87 219.241 235.87 209.614C236.089 202.831 234.338 196.048 230.838 190.14C227.118 184.451 221.867 180.075 215.521 177.668C207.426 174.386 198.674 173.074 189.703 173.292C184.014 173.292 178.981 173.292 174.824 173.511C170.448 173.292 167.385 173.511 165.853 173.73Z" fill="#31A8FF"/>
<path d="M420.103 233.901C413.538 230.4 406.537 227.993 399.097 226.462C391.002 224.711 382.906 223.617 374.591 223.617C370.215 223.398 365.621 224.055 361.463 225.149C358.619 225.805 356.212 227.337 354.68 229.525C353.586 231.275 352.93 233.463 352.93 235.432C352.93 237.402 353.805 239.371 355.118 241.121C357.087 243.528 359.713 245.497 362.557 247.029C367.59 249.655 372.841 252.062 378.092 254.25C389.908 258.188 401.285 263.658 411.788 270.222C419.009 274.817 424.916 280.944 429.074 288.383C432.574 295.385 434.325 303.043 434.106 310.92C434.325 321.203 431.262 331.487 425.573 340.021C419.446 348.773 410.913 355.556 401.067 359.494C390.345 364.089 377.217 366.496 361.463 366.496C351.398 366.496 341.552 365.621 331.706 363.651C324.048 362.338 316.39 359.932 309.388 356.65C307.856 355.774 306.762 354.243 306.981 352.492V314.421C306.981 313.764 307.2 312.889 307.856 312.451C308.513 312.014 309.169 312.232 309.826 312.67C318.359 317.703 327.33 321.203 336.957 323.391C345.272 325.58 354.024 326.674 362.776 326.674C371.091 326.674 376.998 325.579 380.937 323.61C384.438 322.079 386.844 318.359 386.844 314.421C386.844 311.357 385.094 308.513 381.593 305.668C378.092 302.824 370.872 299.542 360.15 295.385C348.991 291.446 338.708 286.195 329.08 279.631C322.297 274.817 316.609 268.472 312.451 261.032C308.95 254.031 307.2 246.373 307.419 238.715C307.419 229.306 310.044 220.335 314.858 212.239C320.328 203.487 328.424 196.485 337.832 192.109C348.116 186.858 361.026 184.451 376.561 184.451C385.532 184.451 394.721 185.108 403.692 186.421C410.256 187.296 416.602 189.046 422.509 191.453C423.385 191.672 424.26 192.547 424.697 193.422C424.916 194.297 425.135 195.173 425.135 196.048V231.713C425.135 232.588 424.697 233.463 424.041 233.901C422.072 234.338 420.978 234.338 420.103 233.901Z" fill="#31A8FF"/>
</svg>
